HIERARCHY
ROOT root
{
	OFFSET	0	13.1	24.9
	CHANNELS 6  Xposition Yposition Zposition Xrotation Yrotation Zrotation
	JOINT spine_1
	{
		OFFSET	0	9.99999	0
		CHANNELS 3  Xrotation Yrotation Zrotation
		JOINT spine_2
		{
			OFFSET	0	112	-10
			CHANNELS 3  Xrotation Yrotation Zrotation
			JOINT spine_3
			{
				OFFSET	0	206.5	19.3
				CHANNELS 3  Xrotation Yrotation Zrotation
				JOINT spine_4
				{
					OFFSET	0	110.4	14.6
					CHANNELS 3  Xrotation Yrotation Zrotation
					JOINT neck_1
					{
						OFFSET	0	71.8	-50.3
						CHANNELS 3  Xrotation Yrotation Zrotation
						JOINT neck_2
						{
							OFFSET	0	86.2	-25.8
							CHANNELS 3  Xrotation Yrotation Zrotation
							JOINT head_ee
							{
								OFFSET	0	179.8	-8.7
								CHANNELS 3  Xrotation Yrotation Zrotation
								End Site
								{
									OFFSET	1	0	0
								}
							}
						}
					}
					JOINT left_clavicle
					{
						OFFSET	-43.2	22.4	-70.8
						CHANNELS 3  Xrotation Yrotation Zrotation
						JOINT left_shoulder
						{
							OFFSET	-93.9	-5.79999	48.7
							CHANNELS 3  Xrotation Yrotation Zrotation
							JOINT left_elbow
							{
								OFFSET	-291.4	-30.8	15.2
								CHANNELS 3  Xrotation Yrotation Zrotation
								JOINT left_lowarm_twist
								{
									OFFSET	-110.7	-3.89999	13.6
									CHANNELS 3  Xrotation Yrotation Zrotation
									JOINT left_hand
									{
										OFFSET	-110.7	-3.89999	13.6
										CHANNELS 3  Xrotation Yrotation Zrotation
										JOINT left_ee
										{
											OFFSET	-80.8	-5.10001	12.1
											CHANNELS 3  Xrotation Yrotation Zrotation
											End Site
											{
												OFFSET	1	0	0
											}
										}
									}
								}
							}
						}
					}
					JOINT right_clavicle
					{
						OFFSET	43.2	22.4	-70.8
						CHANNELS 3  Xrotation Yrotation Zrotation
						JOINT right_shoulder
						{
							OFFSET	93.9	-5.79999	48.7
							CHANNELS 3  Xrotation Yrotation Zrotation
							JOINT right_elbow
							{
								OFFSET	291.4	-30.8	15.2
								CHANNELS 3  Xrotation Yrotation Zrotation
								JOINT right_lowarm_twist
								{
									OFFSET	110.7	-3.89999	13.6
									CHANNELS 3  Xrotation Yrotation Zrotation
									JOINT right_hand
									{
										OFFSET	110.7	-3.89999	13.6
										CHANNELS 3  Xrotation Yrotation Zrotation
										JOINT right_ee
										{
											OFFSET	80.8	-5.10001	12.1
											CHANNELS 3  Xrotation Yrotation Zrotation
											End Site
											{
												OFFSET	1	0	0
											}
										}
									}
								}
							}
						}
					}
				}
			}
		}
	}
	JOINT left_hip
	{
		OFFSET	-82.8	-127.5	0.300001
		CHANNELS 3  Xrotation Yrotation Zrotation
		JOINT left_knee
		{
			OFFSET	-28.2	-396.7	2.2
			CHANNELS 3  Xrotation Yrotation Zrotation
			JOINT left_ankle
			{
				OFFSET	-11.7	-411.3	35.4
				CHANNELS 3  Xrotation Yrotation Zrotation
				JOINT left_toes
				{
					OFFSET	0	-60	-88.6
					CHANNELS 3  Xrotation Yrotation Zrotation
					JOINT left_foot_ee
					{
						OFFSET	-22.5	-16.5	-42.2
						CHANNELS 3  Xrotation Yrotation Zrotation
						End Site
						{
							OFFSET	1	0	0
						}
					}
				}
			}
		}
	}
	JOINT right_hip
	{
		OFFSET	82.8	-127.5	0.300001
		CHANNELS 3  Xrotation Yrotation Zrotation
		JOINT right_knee
		{
			OFFSET	28.2	-396.7	2.2
			CHANNELS 3  Xrotation Yrotation Zrotation
			JOINT right_ankle
			{
				OFFSET	11.7	-411.3	35.4
				CHANNELS 3  Xrotation Yrotation Zrotation
				JOINT right_toes
				{
					OFFSET	0	-60	-88.6
					CHANNELS 3  Xrotation Yrotation Zrotation
					JOINT right_foot_ee
					{
						OFFSET	22.5	-16.5	-42.2
						CHANNELS 3  Xrotation Yrotation Zrotation
						End Site
						{
							OFFSET	1	0	0
						}
					}
				}
			}
		}
	}
}
MOTION
Frames: 13
Frame Time: 0.02
2800.94 716.97 -1473.77 9.97132422867 73.3237473 -15.0892153809 -1.0821 0.350257 3.63787 -1.07474 0.118217 3.65276 -1.06167 -0.719523 3.58324 -1.07956 -0.144983 3.6518 -5.24541 7.29729 -5.22523 -5.07644 17.3286 -4.04799 -0.0 0.0 -0.0 -2.82625 19.8263 -1.85611 3.27365 -44.785 82.5744 3.15708 -57.392 1.72847 -20.0158 -1.11734 2.28954 3.67352 -2.00254 24.5671 -0.0 0.0 -0.0 10.3088 1.87686 -20.3837 -28.8739 4.27729 -64.1109 0.238701 6.74381 -0.0140641 16.3149 -0.28358 2.05776 -2.52309 -28.8527 2.33203 0.0 0.0 0.0 -17.7622 6.7371 8.392 -4.94713 0.171842 0.739555 35.1163 -23.5974 -5.04395 -34.2106 0.0 0.0 -0.0 0.0 -0.0 20.9832 19.6837 -0.92139 4.30072 0.200844 0.629139 -5.65277 -13.2105 -0.839742 -22.0117 0.0 0.0 0.0 0.0 0.0 
2728.55351667 715.472 -1487.99033862 5.88249794348 72.1447713849 -13.0933097403 -0.213337 0.815886 3.66265 -0.206063 0.581333 3.70706 -0.16366 -0.221379 3.74577 -0.183043 0.372551 3.73378 -8.09035 7.94583 -3.65442 -8.07278 17.4075 -1.87317 -0.0 0.0 -0.0 -3.15113 22.8194 -1.73373 -1.98497 -43.2639 76.4706 2.80441 -54.2425 1.43662 -18.2443 -0.986803 2.104 3.94676 -9.37384 23.2743 -0.0 0.0 -0.0 10.1895 0.121977 -20.0532 -27.9172 3.89281 -64.0639 0.188901 5.34608 -0.00881925 18.9884 -0.273757 2.39907 -2.33059 -28.7639 1.34385 0.0 0.0 0.0 -19.1864 7.5039 11.4219 -8.13748 0.24853 1.22308 35.8418 -25.9575 -5.24261 -36.3305 0.0 0.0 -0.0 0.0 -0.0 18.7083 19.8166 0.0715937 -0.476075 -0.01931 -0.0705068 4.04406 -6.47218 0.585921 -20.1338 0.0 0.0 0.0 0.0 0.0 
2705.75272573 718.432 -1494.42949703 6.5387899324 73.1240494198 -13.9491298856 -0.0154273 0.882111 3.55615 -0.0086305 0.654188 3.60498 0.0367913 -0.115457 3.66197 0.0183811 0.463941 3.63433 -7.70906 8.1986 -2.81093 -7.69672 17.2769 -1.03737 -0.0 0.0 -0.0 -2.91681 23.5243 -1.26888 -2.24448 -41.4664 74.0424 2.51852 -51.2782 1.20894 -18.2124 -0.984507 2.10062 4.0905 -11.1396 23.4704 -0.0 0.0 -0.0 10.5509 -0.528121 -20.7664 -27.2714 3.40924 -64.0517 0.173107 4.90136 -0.00740871 19.5794 -0.269438 2.47443 -2.22666 -28.5888 0.872937 0.0 0.0 0.0 -19.5898 7.70598 12.0791 -8.8874 0.262638 1.33729 35.1691 -25.5068 -5.14706 -37.1535 0.0 0.0 -0.0 0.0 -0.0 18.1426 19.7804 0.127598 -1.96899 -0.0760498 -0.292588 4.56769 -5.11874 0.661452 -20.4599 0.0 0.0 0.0 0.0 0.0 
2668.60125532 723.327 -1497.41547221 4.30307190972 76.3950857677 -11.8446001564 0.663681 0.817507 3.39362 0.669887 0.600037 3.43868 0.70849 -0.092692 3.48935 0.691796 0.459213 3.46028 -10.3725 9.27071 -2.69011 -10.4828 19.2738 -0.217067 -0.0 0.0 -0.0 -3.80284 23.7152 -2.44558 -3.80284 -38.6845 71.4068 2.33928 -49.2002 1.07113 -18.5301 -1.00748 2.13421 4.05343 -13.0878 22.2293 -0.0 0.0 -0.0 11.1342 -1.30241 -21.9272 -24.4699 3.22827 -63.7088 0.181994 5.15166 -0.00818739 20.5519 -0.260638 2.59834 -2.10987 -28.7444 0.168176 0.0 0.0 0.0 -16.8239 8.32422 11.5447 -11.8911 0.304126 1.79627 36.7313 -23.2694 -5.19365 -37.7378 0.0 0.0 -0.0 0.0 -0.0 17.5096 19.7273 0.707841 -8.71444 -0.259516 -1.31093 15.0133 -3.09085 2.10068 -19.3893 0.0 0.0 0.0 0.0 0.0 
2669.03393569 723.327 -1499.72075911 4.01451274749 75.3980367468 -11.5470840439 0.663681 0.817507 3.39362 0.669887 0.600037 3.43868 0.70849 -0.092692 3.48935 0.691796 0.459213 3.46028 -10.3725 9.27071 -2.69011 -10.4828 19.2738 -0.217067 -0.0 0.0 -0.0 -3.80284 23.7152 -2.44558 -3.80284 -38.6845 71.4068 2.33928 -49.2002 1.07113 -18.5301 -1.00748 2.13421 4.05343 -13.0878 22.2293 -0.0 0.0 -0.0 11.1342 -1.30241 -21.9272 -24.4699 3.22827 -63.7088 0.181994 5.15166 -0.00818739 20.5519 -0.260638 2.59834 -2.10987 -28.7444 0.168176 0.0 0.0 0.0 -16.8239 8.32422 11.5447 -11.8911 0.304126 1.79627 36.7313 -23.2694 -5.19365 -37.7378 0.0 0.0 -0.0 0.0 -0.0 17.5096 19.7273 0.707841 -8.71444 -0.259516 -1.31093 15.0133 -3.09085 2.10068 -19.3893 0.0 0.0 0.0 0.0 0.0 
2611.90439371 715.317 -1485.1157549 10.2631326614 79.3719335341 -18.4798738184 1.15 0.657265 3.23484 1.15571 0.450205 3.27005 1.18281 -0.179083 3.29601 1.16782 0.34342 3.28297 -13.4209 10.3216 -3.56169 -13.7302 21.8549 -0.159227 -0.0 0.0 -0.0 -5.97992 23.724 -5.45614 -4.68576 -31.4929 75.3929 2.15558 -46.8723 0.934506 -20.0462 -1.11963 2.29269 3.8901 -15.9044 19.6294 -0.0 0.0 -0.0 10.8135 -1.77762 -21.2261 -18.8041 4.97018 -64.4989 0.383318 10.7518 -0.0360717 21.0252 -0.255594 2.65859 -1.92783 -28.1154 -0.509328 0.0 0.0 0.0 -12.7783 10.2124 10.7062 -27.861 0.120033 4.23198 38.0883 -21.8715 -5.26002 -35.4494 0.0 0.0 -0.0 0.0 -0.0 15.2917 18.3817 1.85474 -15.0923 -0.321802 -2.28705 26.034 -4.7524 3.45131 -18.4423 0.0 0.0 0.0 0.0 0.0 
2591.43725875 714.117 -1481.23283515 11.6496105545 77.9680076174 -20.0949271818 1.23021 0.657708 3.24489 1.23595 0.450009 3.28011 1.26299 -0.176557 3.3061 1.24791 0.347505 3.29253 -13.6622 10.6534 -2.50252 -14.0043 21.8381 1.00683 -0.0 0.0 -0.0 -8.23574 21.7579 -9.35785 -5.72901 -32.5145 76.285 2.12182 -46.421 0.909959 -18.0943 -0.97602 2.08811 3.92948 -16.2536 19.7277 -0.0 0.0 -0.0 10.6323 -1.42651 -20.8769 -17.8135 7.85701 -65.7145 0.549251 15.2209 -0.0733884 21.2614 -0.252891 2.68863 -1.91163 -27.4002 -0.256052 0.0 0.0 0.0 -7.89906 10.2431 9.68173 -39.2969 -0.422642 5.89961 38.3666 -19.3118 -5.1749 -35.1074 0.0 0.0 -0.0 0.0 -0.0 13.4971 19.2184 1.83702 -16.6412 -0.320507 -2.52468 28.2237 -1.64075 3.70755 -15.9251 0.0 0.0 0.0 0.0 0.0 
2583.6850419 715.865 -1478.54411564 8.03651911836 78.1460767623 -16.4618571308 1.81755 0.535744 3.2684 1.82343 0.326797 3.29583 1.84242 -0.267321 3.30118 1.82731 0.257101 3.30199 -15.8482 11.5437 -2.3802 -16.4004 23.4859 1.91309 -0.0 0.0 -0.0 -9.87103 20.0403 -12.5491 -5.34656 -35.7385 76.8261 2.05796 -45.5466 0.864036 -16.9643 -0.896101 1.9675 4.28488 -17.1742 21.7637 -0.0 0.0 -0.0 10.2029 1.10593 -20.1282 -17.6831 15.9757 -67.3448 0.833265 22.4295 -0.165216 20.9835 -0.256058 2.65328 -1.87517 -27.0267 -0.277881 0.0 0.0 0.0 -4.97217 11.5616 8.3498 -43.7302 -0.720972 6.51241 35.9761 -18.6941 -4.91955 -36.2679 0.0 0.0 -0.0 0.0 -0.0 12.6148 19.0399 2.48015 -14.1447 -0.319428 -2.14168 29.6853 -1.877 3.86511 -15.243 0.0 0.0 0.0 0.0 0.0 
2583.7169029 715.865 -1479.8226925 7.81810779539 77.8120809421 -16.2385499831 1.81755 0.535744 3.2684 1.82343 0.326797 3.29583 1.84242 -0.267321 3.30118 1.82731 0.257101 3.30199 -15.8482 11.5437 -2.3802 -16.4004 23.4859 1.91309 -0.0 0.0 -0.0 -9.87103 20.0403 -12.5491 -5.34656 -35.7385 76.8261 2.05796 -45.5466 0.864036 -16.9643 -0.896101 1.9675 4.28488 -17.1742 21.7637 -0.0 0.0 -0.0 10.2029 1.10593 -20.1282 -17.6831 15.9757 -67.3448 0.833265 22.4295 -0.165216 20.9835 -0.256058 2.65328 -1.87517 -27.0267 -0.277881 0.0 0.0 0.0 -4.97217 11.5616 8.3498 -43.7302 -0.720972 6.51241 35.9761 -18.6941 -4.91955 -36.2679 0.0 0.0 -0.0 0.0 -0.0 12.6148 19.0399 2.48015 -14.1447 -0.319428 -2.14168 29.6853 -1.877 3.86511 -15.243 0.0 0.0 0.0 0.0 0.0 
2583.78214038 715.865 -1481.83058335 7.49839297757 77.2871168918 -15.9111388345 1.81755 0.535744 3.2684 1.82343 0.326797 3.29583 1.84242 -0.267321 3.30118 1.82731 0.257101 3.30199 -15.8482 11.5437 -2.3802 -16.4004 23.4859 1.91309 -0.0 0.0 -0.0 -9.87103 20.0403 -12.5491 -5.34656 -35.7385 76.8261 2.05796 -45.5466 0.864036 -16.9643 -0.896101 1.9675 4.28488 -17.1742 21.7637 -0.0 0.0 -0.0 10.2029 1.10593 -20.1282 -17.6831 15.9757 -67.3448 0.833265 22.4295 -0.165216 20.9835 -0.256058 2.65328 -1.87517 -27.0267 -0.277881 0.0 0.0 0.0 -4.97217 11.5616 8.3498 -43.7302 -0.720972 6.51241 35.9761 -18.6941 -4.91955 -36.2679 0.0 0.0 -0.0 0.0 -0.0 12.6148 19.0399 2.48015 -14.1447 -0.319428 -2.14168 29.6853 -1.877 3.86511 -15.243 0.0 0.0 0.0 0.0 0.0 
2570.24287609 720.37 -1489.30939256 5.7265323792 78.3215250575 -14.073561531 2.09209 0.524835 3.34993 2.09827 0.310731 3.3765 2.11629 -0.281422 3.37906 2.10045 0.255456 3.38112 -15.9309 11.6655 -2.40444 -16.5015 23.7331 1.9567 -0.0 0.0 -0.0 -10.8991 19.3866 -14.4988 -3.01327 -29.89 79.25 1.85967 -42.6479 0.726004 -16.3791 -0.855656 1.90443 4.23307 -17.5242 21.2073 -0.0 0.0 -0.0 10.3079 0.056719 -20.2954 -15.9393 15.7999 -69.1661 1.11269 28.8625 -0.286347 22.1098 -0.24216 2.79647 -1.82832 -26.0343 -0.0661662 0.0 0.0 0.0 -2.64347 11.1784 5.73396 -44.5879 -0.784143 6.62826 35.2893 -16.5144 -4.77305 -36.2094 0.0 0.0 -0.0 0.0 -0.0 12.0932 17.6825 1.90149 -13.489 -0.316377 -2.04113 33.3034 -2.84436 4.23625 -17.6968 0.0 0.0 0.0 0.0 0.0 
2570.85481365 720.37 -1496.64887065 4.96495849619 76.5043274097 -13.293331884 2.09209 0.524835 3.34993 2.09827 0.310731 3.3765 2.11629 -0.281422 3.37906 2.10045 0.255456 3.38112 -15.9309 11.6655 -2.40444 -16.5015 23.7331 1.9567 -0.0 0.0 -0.0 -10.8991 19.3866 -14.4988 -3.01327 -29.89 79.25 1.85967 -42.6479 0.726004 -16.3791 -0.855656 1.90443 4.23307 -17.5242 21.2073 -0.0 0.0 -0.0 10.3079 0.056719 -20.2954 -15.9393 15.7999 -69.1661 1.11269 28.8625 -0.286347 22.1098 -0.24216 2.79647 -1.82832 -26.0343 -0.0661662 0.0 0.0 0.0 -2.64347 11.1784 5.73396 -44.5879 -0.784143 6.62826 35.2893 -16.5144 -4.77305 -36.2094 0.0 0.0 -0.0 0.0 -0.0 12.0932 17.6825 1.90149 -13.489 -0.316377 -2.04113 33.3034 -2.84436 4.23625 -17.6968 0.0 0.0 0.0 0.0 0.0 
2571.66906695 720.37 -1503.72788638 4.4023549597 74.7444013318 -12.7126119722 2.09209 0.524835 3.34993 2.09827 0.310731 3.3765 2.11629 -0.281422 3.37906 2.10045 0.255456 3.38112 -15.9309 11.6655 -2.40444 -16.5015 23.7331 1.9567 -0.0 0.0 -0.0 -10.8991 19.3866 -14.4988 -3.01327 -29.89 79.25 1.85967 -42.6479 0.726004 -16.3791 -0.855656 1.90443 4.23307 -17.5242 21.2073 -0.0 0.0 -0.0 10.3079 0.056719 -20.2954 -15.9393 15.7999 -69.1661 1.11269 28.8625 -0.286347 22.1098 -0.24216 2.79647 -1.82832 -26.0343 -0.0661662 0.0 0.0 0.0 -2.64347 11.1784 5.73396 -44.5879 -0.784143 6.62826 35.2893 -16.5144 -4.77305 -36.2094 0.0 0.0 -0.0 0.0 -0.0 12.0932 17.6825 1.90149 -13.489 -0.316377 -2.04113 33.3034 -2.84436 4.23625 -17.6968 0.0 0.0 0.0 0.0 0.0 
